<svg width="35" height="35" viewBox="0 0 35 35" fill="none" xmlns="http://www.w3.org/2000/svg">
<path d="M32.0833 7.55414L15.4437 24.2083L9.26038 18.025L11.3166 15.9687L15.4437 20.0958L30.027 5.51247L32.0833 7.55414ZM28.8604 14.9041C29.05 15.7354 29.1666 16.6104 29.1666 17.5C29.1666 23.9458 23.9458 29.1666 17.5 29.1666C11.0541 29.1666 5.83329 23.9458 5.83329 17.5C5.83329 11.0541 11.0541 5.83331 17.5 5.83331C19.8041 5.83331 21.9333 6.50414 23.7416 7.65622L25.8416 5.55622C23.401 3.83473 20.4866 2.91251 17.5 2.91664C9.44996 2.91664 2.91663 9.44997 2.91663 17.5C2.91663 25.55 9.44996 32.0833 17.5 32.0833C25.55 32.0833 32.0833 25.55 32.0833 17.5C32.0833 15.7646 31.7625 14.1021 31.2083 12.5562L28.8604 14.9041Z" fill="white"/>
</svg>
