<svg width="27" height="27" viewBox="0 0 27 27" fill="none" xmlns="http://www.w3.org/2000/svg">
<path d="M1 10.5556C1 8.66995 1 7.72715 1.58579 7.14136C2.17157 6.55557 3.11438 6.55557 5 6.55557H5.16667H21.8333H22C23.8856 6.55557 24.8284 6.55557 25.4142 7.14136C26 7.72715 26 8.66995 26 10.5556V22C26 23.8856 26 24.8284 25.4142 25.4142C24.8284 26 23.8856 26 22 26H19.0556H7.94444H5C3.11438 26 2.17157 26 1.58579 25.4142C1 24.8284 1 23.8856 1 22V10.5556Z" stroke="#FF9F43" stroke-width="2" stroke-linejoin="round"/>
<path d="M7.94434 6.55556V3C7.94434 1.89543 8.83977 1 9.94434 1H17.0554C18.16 1 19.0554 1.89543 19.0554 3V6.55556" stroke="#FF9F43" stroke-width="2" stroke-linejoin="round"/>
<path d="M1 10.7222C1.25852 12.5508 2.02082 14.2414 3.16052 15.6825C5.43697 18.5611 9.21912 20.4445 13.5 20.4445C17.7809 20.4445 21.563 18.5611 23.8395 15.6825C24.9792 14.2414 25.7415 12.5508 26 10.7222" stroke="#FF9F43" stroke-width="2" stroke-linecap="round"/>
<path d="M12.8057 14.8889H14.1946" stroke="#FF9F43" stroke-width="2" stroke-linecap="round" stroke-linejoin="round"/>
</svg>
