<svg width="22" height="22" viewBox="0 0 22 22" fill="none" xmlns="http://www.w3.org/2000/svg">
<path d="M18.7 3.34791C18.0676 3.29981 17.3572 3.29988 16.6307 3.29996L5.36944 3.29996C4.64291 3.29988 3.93246 3.29981 3.30005 3.34792L3.30005 3.29995C3.30005 1.4774 4.77751 -6.04504e-05 6.60005 -6.03708e-05L15.4 -6.10352e-05C17.2226 -6.09555e-05 18.7 1.4774 18.7 3.29995L18.7 3.34791Z" fill="#FF6B6B"/>
<path fill-rule="evenodd" clip-rule="evenodd" d="M9.82773 10.9999C9.85179 10.9999 9.87593 10.9999 9.90015 10.9999L12.1001 10.9999C12.1244 10.9999 12.1485 10.9999 12.1726 10.9999C13.1477 10.9999 13.9879 10.9998 14.6607 11.0903C15.3818 11.1872 16.073 11.4058 16.6336 11.9665C17.1942 12.5271 17.4128 13.2183 17.5098 13.9394C17.6002 14.6122 17.6002 15.4524 17.6001 16.4275L17.6001 16.5723C17.6002 17.5475 17.6002 18.3877 17.5098 19.0605C17.4128 19.7816 17.1942 20.4728 16.6336 21.0334C16.073 21.594 15.3818 21.8126 14.6607 21.9096C13.9879 22 13.1477 22 12.1726 21.9999L9.82773 21.9999C8.8526 22 8.0124 22 7.33958 21.9096C6.61851 21.8126 5.92733 21.594 5.3667 21.0334C4.80607 20.4728 4.58745 19.7816 4.49051 19.0605C4.40005 18.3877 4.40009 17.5475 4.40015 16.5723C4.40015 16.5483 4.40015 16.5241 4.40015 16.4999C4.40015 16.4757 4.40015 16.4516 4.40015 16.4275C4.40009 15.4524 4.40005 14.6122 4.49051 13.9394C4.58745 13.2183 4.80607 12.5271 5.3667 11.9665C5.92733 11.4058 6.61851 11.1872 7.33958 11.0903C8.01241 10.9998 8.8526 10.9999 9.82773 10.9999Z" fill="#FF6B6B"/>
<path d="M5.42759 4.39997C4.45245 4.39991 3.61226 4.39986 2.93944 4.49032C2.21837 4.58727 1.52718 4.80589 0.966554 5.36652C0.405925 5.92715 0.187305 6.61834 0.090361 7.33941C-9.78641e-05 8.01223 -5.17384e-05 8.85243 2.76909e-06 9.82757L2.66659e-06 12.1724C-5.19262e-05 13.1475 -9.81181e-05 13.9877 0.0903607 14.6606C0.187307 15.3816 0.405925 16.0728 0.966553 16.6335C1.59112 17.258 2.44971 17.4766 3.30368 17.549C3.29994 17.249 3.29997 16.9413 3.3 16.6306C3.3 15.6859 3.27401 14.7312 3.40018 13.7929C3.51342 12.9505 3.78933 11.9881 4.58874 11.1887C5.38816 10.3893 6.35054 10.1134 7.19287 10.0002C7.93934 9.89979 8.84125 9.89989 9.76938 9.89998L12.2306 9.89998C13.1588 9.89989 14.0607 9.89979 14.8071 10.0002C15.6495 10.1134 16.6119 10.3893 17.4113 11.1887C18.2107 11.9881 18.4866 12.9505 18.5998 13.7929C18.726 14.7312 18.7 15.6859 18.7 16.6306C18.7 16.9413 18.7001 17.249 18.6963 17.549C19.5503 17.4766 20.4089 17.258 21.0334 16.6335C21.5941 16.0728 21.8127 15.3816 21.9096 14.6606C22.0001 13.9877 22.0001 13.1475 22 12.1724L22 9.8276C22.0001 8.85246 22.0001 8.01223 21.9096 7.33941C21.8127 6.61834 21.5941 5.92715 21.0334 5.36652C20.4728 4.80589 19.7816 4.58727 19.0606 4.49032C18.3877 4.39986 17.5475 4.39991 16.5724 4.39997L5.42759 4.39997Z" fill="#FF6B6B"/>
</svg>
