<svg width="25" height="25" viewBox="0 0 25 25" fill="none" xmlns="http://www.w3.org/2000/svg">
<path d="M23.7136 17.4794H6.24041C5.9094 17.4794 5.59195 17.3479 5.35789 17.1138C5.12383 16.8796 4.99233 16.562 4.99233 16.2309C4.99233 15.8998 5.12383 15.5822 5.35789 15.3481C5.59195 15.1139 5.9094 14.9824 6.24041 14.9824H19.2704C20.1049 14.9824 20.9156 14.7036 21.5736 14.1901C22.2316 13.6766 22.6992 12.958 22.9023 12.1482L24.9617 4.04524C25.0084 3.86097 25.0125 3.66845 24.9735 3.48237C24.9346 3.29629 24.8537 3.12156 24.737 2.9715C24.6156 2.8176 24.4597 2.69445 24.2819 2.61203C24.1041 2.5296 23.9094 2.49022 23.7136 2.49706H5.94087C5.68338 1.76848 5.20691 1.13741 4.5768 0.690361C3.94669 0.243312 3.19377 0.00217183 2.42128 0H1.24808C0.917071 0 0.599616 0.131541 0.365555 0.365686C0.131494 0.599831 0 0.9174 0 1.24853C0 1.57966 0.131494 1.89723 0.365555 2.13138C0.599616 2.36552 0.917071 2.49706 1.24808 2.49706H2.42128C2.70639 2.48875 2.98574 2.57838 3.21282 2.75103C3.43991 2.92368 3.60103 3.16893 3.66936 3.44595L3.74425 4.04524L5.90343 12.4853C4.9104 12.53 3.97578 12.9675 3.3052 13.7016C2.63461 14.4356 2.28299 15.4061 2.32767 16.3995C2.37236 17.3929 2.8097 18.3278 3.54348 18.9986C4.27726 19.6695 5.24738 20.0212 6.24041 19.9765H6.46507C6.2598 20.5423 6.19384 21.1491 6.27278 21.7458C6.35171 22.3425 6.57321 22.9113 6.91852 23.4042C7.26383 23.897 7.72278 24.2994 8.25651 24.5772C8.79023 24.855 9.38302 25 9.98466 25C10.5863 25 11.1791 24.855 11.7128 24.5772C12.2465 24.2994 12.7055 23.897 13.0508 23.4042C13.3961 22.9113 13.6176 22.3425 13.6965 21.7458C13.7755 21.1491 13.7095 20.5423 13.5043 19.9765H16.4497C16.2445 20.5423 16.1785 21.1491 16.2574 21.7458C16.3364 22.3425 16.5579 22.9113 16.9032 23.4042C17.2485 23.897 17.7074 24.2994 18.2412 24.5772C18.7749 24.855 19.3677 25 19.9693 25C20.571 25 21.1638 24.855 21.6975 24.5772C22.2312 24.2994 22.6902 23.897 23.0355 23.4042C23.3808 22.9113 23.6023 22.3425 23.6812 21.7458C23.7601 21.1491 23.6942 20.5423 23.4889 19.9765H23.7136C24.0446 19.9765 24.362 19.845 24.5961 19.6108C24.8302 19.3767 24.9617 19.0591 24.9617 18.728C24.9617 18.3968 24.8302 18.0793 24.5961 17.8451C24.362 17.611 24.0446 17.4794 23.7136 17.4794ZM22.116 4.99413L20.481 11.5364C20.4127 11.8134 20.2516 12.0587 20.0245 12.2313C19.7974 12.404 19.5181 12.4936 19.233 12.4853H8.462L6.58988 4.99413H22.116ZM9.98466 22.4736C9.73781 22.4736 9.49651 22.4003 9.29126 22.2632C9.08602 22.126 8.92605 21.931 8.83158 21.7028C8.73712 21.4747 8.7124 21.2236 8.76056 20.9815C8.80872 20.7393 8.92759 20.5168 9.10213 20.3422C9.27668 20.1676 9.49907 20.0487 9.74117 20.0005C9.98328 19.9523 10.2342 19.977 10.4623 20.0715C10.6903 20.166 10.8853 20.3261 11.0224 20.5314C11.1595 20.7367 11.2327 20.9781 11.2327 21.225C11.2327 21.5562 11.1013 21.8737 10.8672 22.1079C10.6331 22.342 10.3157 22.4736 9.98466 22.4736ZM19.9693 22.4736C19.7225 22.4736 19.4812 22.4003 19.2759 22.2632C19.0707 22.126 18.9107 21.931 18.8162 21.7028C18.7218 21.4747 18.6971 21.2236 18.7452 20.9815C18.7934 20.7393 18.9122 20.5168 19.0868 20.3422C19.2613 20.1676 19.4837 20.0487 19.7258 20.0005C19.9679 19.9523 20.2189 19.977 20.4469 20.0715C20.675 20.166 20.8699 20.3261 21.0071 20.5314C21.1442 20.7367 21.2174 20.9781 21.2174 21.225C21.2174 21.5562 21.0859 21.8737 20.8519 22.1079C20.6178 22.342 20.3003 22.4736 19.9693 22.4736Z" fill="#5F27CD"/>
</svg>
