<svg width="26" height="20" viewBox="0 0 26 20" fill="none" xmlns="http://www.w3.org/2000/svg">
<g clip-path="url(#clip0_164_23)">
<path d="M12.6163 15L14.264 13.3523L12.105 11.1932L10.4572 12.8409V13.6364H11.8209V15H12.6163ZM18.8663 4.77273C18.7148 4.62121 18.5586 4.62595 18.3976 4.78693L13.426 9.75852C13.265 9.91951 13.2603 10.0758 13.4118 10.2273C13.5633 10.3788 13.7195 10.3741 13.8805 10.2131L18.8521 5.24148C19.0131 5.08049 19.0178 4.92424 18.8663 4.77273ZM20.0027 13.2102V15.9091C20.0027 17.036 19.6026 17.9995 18.8024 18.7997C18.0022 19.5999 17.0387 20 15.9118 20H4.09359C2.9667 20 2.00316 19.5999 1.20297 18.7997C0.40278 17.9995 0.00268555 17.036 0.00268555 15.9091V4.09091C0.00268555 2.96402 0.40278 2.00047 1.20297 1.20028C2.00316 0.400095 2.9667 0 4.09359 0H15.9118C16.5084 0 17.0623 0.118371 17.5737 0.355114C17.7158 0.421402 17.801 0.530303 17.8294 0.681818C17.8578 0.842803 17.8152 0.980114 17.7015 1.09375L17.0055 1.78977C16.873 1.92235 16.7214 1.96023 16.551 1.90341C16.3332 1.84659 16.1201 1.81818 15.9118 1.81818H4.09359C3.46859 1.81818 2.93356 2.04072 2.48848 2.4858C2.04341 2.93087 1.82087 3.46591 1.82087 4.09091V15.9091C1.82087 16.5341 2.04341 17.0691 2.48848 17.5142C2.93356 17.9593 3.46859 18.1818 4.09359 18.1818H15.9118C16.5368 18.1818 17.0718 17.9593 17.5169 17.5142C17.962 17.0691 18.1845 16.5341 18.1845 15.9091V14.1193C18.1845 13.9962 18.2271 13.892 18.3123 13.8068L19.2214 12.8977C19.3635 12.7557 19.5292 12.7225 19.7186 12.7983C19.908 12.8741 20.0027 13.0114 20.0027 13.2102ZM18.639 2.72727L22.73 6.81818L13.1845 16.3636H9.09359V12.2727L18.639 2.72727ZM24.9459 4.60227L23.639 5.90909L19.5481 1.81818L20.855 0.511364C21.1201 0.246212 21.4421 0.113636 21.8209 0.113636C22.1997 0.113636 22.5216 0.246212 22.7868 0.511364L24.9459 2.67045C25.211 2.93561 25.3436 3.25758 25.3436 3.63636C25.3436 4.01515 25.211 4.33712 24.9459 4.60227Z" fill="#F48116"/>
</g>
<defs>
<clipPath id="clip0_164_23">
<rect width="25.46" height="20" fill="white"/>
</clipPath>
</defs>
</svg>
