<svg width="23" height="20" viewBox="0 0 23 20" fill="none" xmlns="http://www.w3.org/2000/svg">
<g clip-path="url(#clip0_164_33)">
<path d="M10.9219 6.26562C11.0313 6.25391 11.1406 6.25 11.25 6.25C13.3203 6.25 15 7.89453 15 10C15 12.0703 13.3203 13.75 11.25 13.75C9.14453 13.75 7.5 12.0703 7.5 10C7.5 9.89063 7.50391 9.78125 7.51563 9.67188C7.87891 9.84766 8.30078 10 8.75 10C10.1289 10 11.25 8.87891 11.25 7.5C11.25 7.05078 11.0977 6.62891 10.9219 6.26562ZM18.7734 4.39844C20.6016 6.09375 21.8242 8.08984 22.4023 9.51953C22.5313 9.82812 22.5313 10.1719 22.4023 10.4805C21.8242 11.875 20.6016 13.8711 18.7734 15.6016C16.9336 17.3125 14.4063 18.75 11.25 18.75C8.09375 18.75 5.56641 17.3125 3.72735 15.6016C1.89922 13.8711 0.677347 11.875 0.0961361 10.4805C0.0326743 10.3282 0 10.1649 0 10C0 9.83507 0.0326743 9.67177 0.0961361 9.51953C0.677347 8.08984 1.89922 6.09375 3.72735 4.39844C5.56641 2.68906 8.09375 1.25 11.25 1.25C14.4063 1.25 16.9336 2.68906 18.7734 4.39844V4.39844ZM11.25 4.375C8.14453 4.375 5.625 6.89453 5.625 10C5.625 13.1055 8.14453 15.625 11.25 15.625C14.3555 15.625 16.875 13.1055 16.875 10C16.875 6.89453 14.3555 4.375 11.25 4.375Z" fill="#F48116"/>
</g>
<defs>
<clipPath id="clip0_164_33">
<rect width="22.5" height="20" fill="white"/>
</clipPath>
</defs>
</svg>
