<svg width="15" height="20" viewBox="0 0 15 20" fill="none" xmlns="http://www.w3.org/2000/svg">
<path d="M7.10547 10.0039C6.91016 9.37891 6.91406 8.17187 7.02734 8.17187C7.35547 8.17187 7.32422 9.61328 7.10547 10.0039ZM7.03906 11.8477C6.73828 12.6367 6.36328 13.5391 5.92969 14.2969C6.64453 14.0234 7.45312 13.625 8.38672 13.4414C7.89062 13.0664 7.41406 12.5273 7.03906 11.8477ZM3.36328 16.7227C3.36328 16.7539 3.87891 16.5117 4.72656 15.1523C4.46484 15.3984 3.58984 16.1094 3.36328 16.7227ZM9.6875 6.25H15V19.0625C15 19.582 14.582 20 14.0625 20H0.9375C0.417969 20 0 19.582 0 19.0625V0.9375C0 0.417969 0.417969 0 0.9375 0H8.75V5.3125C8.75 5.82812 9.17188 6.25 9.6875 6.25ZM9.375 12.9609C8.59375 12.4844 8.07422 11.8281 7.70703 10.8594C7.88281 10.1367 8.16016 9.03906 7.94922 8.35156C7.76563 7.20313 6.29297 7.31641 6.08203 8.08594C5.88672 8.80078 6.06641 9.80859 6.39844 11.0938C5.94531 12.1719 5.27734 13.6172 4.80469 14.4453C4.80078 14.4453 4.80078 14.4492 4.79688 14.4492C3.73828 14.9922 1.92188 16.1875 2.66797 17.1055C2.88672 17.375 3.29297 17.4961 3.50781 17.4961C4.20703 17.4961 4.90234 16.793 5.89453 15.082C6.90234 14.75 8.00781 14.3359 8.98047 14.1758C9.82812 14.6367 10.8203 14.9375 11.4805 14.9375C12.6211 14.9375 12.6992 13.6875 12.25 13.2422C11.707 12.7109 10.1289 12.8633 9.375 12.9609V12.9609ZM14.7266 4.10156L10.8984 0.273438C10.7227 0.0976562 10.4844 0 10.2344 0H10V5H15V4.76172C15 4.51563 14.9023 4.27734 14.7266 4.10156ZM11.832 14.0742C11.9922 13.9687 11.7344 13.6094 10.1602 13.7227C11.6094 14.3398 11.832 14.0742 11.832 14.0742Z" fill="#F48116"/>
</svg>
