<svg width="39" height="30" viewBox="0 0 39 30" fill="none" xmlns="http://www.w3.org/2000/svg">
<path d="M27.625 27.5C25.3771 27.5 23.4607 26.8904 21.8757 25.6713C20.2908 24.4521 19.4989 22.9783 19.5 21.25C19.5 19.5208 20.2925 18.0467 21.8774 16.8275C23.4623 15.6083 25.3782 14.9992 27.625 15C29.8729 15 31.7893 15.6096 33.3742 16.8288C34.9592 18.0479 35.7511 19.5217 35.75 21.25C35.75 22.9792 34.9575 24.4533 33.3726 25.6725C31.7877 26.8917 29.8718 27.5008 27.625 27.5ZM30.3469 24.2188L31.4844 23.3438L28.4375 21V17.5H26.8125V21.5L30.3469 24.2188ZM4.875 26.25V3.75H14.9094C15.2073 3.02084 15.7896 2.42167 16.6562 1.9525C17.5229 1.48334 18.4708 1.24917 19.5 1.25C20.5833 1.25 21.5518 1.48459 22.4055 1.95375C23.2592 2.42292 23.8344 3.02167 24.1312 3.75H34.125V14.0625C33.6375 13.7917 33.1229 13.5625 32.5812 13.375C32.0396 13.1875 31.4708 13.0208 30.875 12.875V6.25H27.625V10H11.375V6.25H8.125V23.75H16.7375C16.9271 24.2083 17.1437 24.6458 17.3875 25.0625C17.6312 25.4792 17.9292 25.875 18.2812 26.25H4.875ZM19.5 6.25C19.9604 6.25 20.3466 6.13 20.6586 5.89C20.9706 5.65 21.1261 5.35334 21.125 5C21.125 4.64584 20.969 4.34875 20.657 4.10875C20.345 3.86875 19.9593 3.74917 19.5 3.75C19.0396 3.75 18.6534 3.87 18.3414 4.11C18.0294 4.35 17.8739 4.64667 17.875 5C17.875 5.35417 18.031 5.65125 18.343 5.89125C18.655 6.13125 19.0407 6.25084 19.5 6.25Z" fill="#FFD233"/>
</svg>
