<svg width="30" height="30" viewBox="0 0 30 30" fill="none" xmlns="http://www.w3.org/2000/svg">
<path d="M10.3125 17.1094L4.6875 17.1094C4.25238 17.1094 3.83508 17.2822 3.5274 17.5899C3.21973 17.8976 3.04688 18.3149 3.04688 18.75V24.375C3.04688 24.8101 3.21973 25.2274 3.5274 25.5351C3.83508 25.8428 4.25238 26.0156 4.6875 26.0156H10.3125C10.7476 26.0156 11.1649 25.8428 11.4726 25.5351C11.7803 25.2274 11.9531 24.8101 11.9531 24.375V22.2656H13.125C14.0565 22.2625 14.9489 21.8911 15.6075 21.2325C16.2661 20.5739 16.6375 19.6815 16.6406 18.75V15.7031H19.9219V17.3438C19.9219 17.7789 20.0947 18.1962 20.4024 18.5038C20.7101 18.8115 21.1274 18.9844 21.5625 18.9844H26.25C26.6851 18.9844 27.1024 18.8115 27.4101 18.5038C27.7178 18.1962 27.8906 17.7789 27.8906 17.3438V12.6562C27.8906 12.2211 27.7178 11.8038 27.4101 11.4962C27.1024 11.1885 26.6851 11.0156 26.25 11.0156H21.5625C21.1274 11.0156 20.7101 11.1885 20.4024 11.4962C20.0947 11.8038 19.9219 12.2211 19.9219 12.6563V14.2969H16.6406V11.25C16.6375 10.3185 16.2661 9.42613 15.6075 8.76749C14.9489 8.10885 14.0565 7.73746 13.125 7.73438H11.9531V5.625C11.9531 5.18988 11.7803 4.77258 11.4726 4.4649C11.1649 4.15723 10.7476 3.98438 10.3125 3.98438H4.6875C4.25238 3.98438 3.83508 4.15723 3.5274 4.4649C3.21973 4.77258 3.04687 5.18988 3.04687 5.625V11.25C3.04688 11.6851 3.21973 12.1024 3.5274 12.4101C3.83508 12.7178 4.25238 12.8906 4.6875 12.8906L10.3125 12.8906C10.7476 12.8906 11.1649 12.7178 11.4726 12.4101C11.7803 12.1024 11.9531 11.6851 11.9531 11.25V9.14063H13.125C13.6835 9.1437 14.2182 9.36693 14.6132 9.76185C15.0081 10.1568 15.2313 10.6915 15.2344 11.25V18.75C15.2313 19.3085 15.0081 19.8432 14.6132 20.2382C14.2182 20.6331 13.6835 20.8563 13.125 20.8594H11.9531L11.9531 18.75C11.9531 18.3149 11.7803 17.8976 11.4726 17.5899C11.1649 17.2822 10.7476 17.1094 10.3125 17.1094ZM21.3281 12.6562C21.3281 12.5941 21.3528 12.5345 21.3968 12.4905C21.4407 12.4466 21.5003 12.4219 21.5625 12.4219H26.25C26.3122 12.4219 26.3718 12.4466 26.4157 12.4905C26.4597 12.5345 26.4844 12.5941 26.4844 12.6562V17.3438C26.4844 17.4059 26.4597 17.4655 26.4157 17.5095C26.3718 17.5534 26.3122 17.5781 26.25 17.5781H21.5625C21.5003 17.5781 21.4407 17.5534 21.3968 17.5095C21.3528 17.4655 21.3281 17.4059 21.3281 17.3438V12.6562ZM10.5469 11.25C10.5469 11.3122 10.5222 11.3718 10.4782 11.4157C10.4343 11.4597 10.3747 11.4844 10.3125 11.4844L4.6875 11.4844C4.62534 11.4844 4.56573 11.4597 4.52177 11.4157C4.47782 11.3718 4.45312 11.3122 4.45312 11.25V5.625C4.45312 5.56284 4.47782 5.50323 4.52177 5.45927C4.56573 5.41532 4.62534 5.39063 4.6875 5.39063H10.3125C10.3747 5.39063 10.4343 5.41532 10.4782 5.45927C10.5222 5.50323 10.5469 5.56284 10.5469 5.625V11.25ZM10.5469 24.375C10.5469 24.4372 10.5222 24.4968 10.4782 24.5407C10.4343 24.5847 10.3747 24.6094 10.3125 24.6094H4.6875C4.62534 24.6094 4.56573 24.5847 4.52177 24.5407C4.47782 24.4968 4.45312 24.4372 4.45312 24.375V18.75C4.45312 18.6878 4.47782 18.6282 4.52177 18.5843C4.56573 18.5403 4.62534 18.5156 4.6875 18.5156L10.3125 18.5156C10.3747 18.5156 10.4343 18.5403 10.4782 18.5843C10.5222 18.6282 10.5469 18.6878 10.5469 18.75V24.375Z" fill="#CDCDCD"/>
</svg>
