<svg width="70" height="70" viewBox="0 0 70 70" fill="none" xmlns="http://www.w3.org/2000/svg">
<path d="M34.9999 5.83337C19.1887 5.83337 5.83325 19.1888 5.83325 35C5.83325 50.8113 19.1887 64.1667 34.9999 64.1667C50.8112 64.1667 64.1666 50.8113 64.1666 35C64.1666 19.1888 50.8112 5.83337 34.9999 5.83337ZM34.9999 20.4167C40.037 20.4167 43.7499 24.1267 43.7499 29.1667C43.7499 34.2067 40.037 37.9167 34.9999 37.9167C29.9658 37.9167 26.2499 34.2067 26.2499 29.1667C26.2499 24.1267 29.9658 20.4167 34.9999 20.4167ZM20.1074 48.9184C22.7237 45.0684 27.087 42.5017 32.0833 42.5017H37.9166C42.9157 42.5017 47.2762 45.0684 49.8924 48.9184C46.1649 52.9084 40.877 55.4167 34.9999 55.4167C29.1228 55.4167 23.8349 52.9084 20.1074 48.9184Z" fill="#CCCCCC"/>
</svg>
