<svg width="30" height="30" viewBox="0 0 30 30" fill="none" xmlns="http://www.w3.org/2000/svg">
<path d="M7.92188 12.1875L8.17313 12.0975L10.3012 8.1075C10.701 7.35767 11.297 6.73059 12.0255 6.29332C12.7541 5.85605 13.5878 5.62505 14.4375 5.625H19.7981C20.7819 5.62535 21.7405 5.93519 22.5384 6.51062C23.3363 7.08606 23.9329 7.89793 24.2438 8.83125L25.2581 11.8744C26.108 12.2326 26.8333 12.8335 27.3432 13.6019C27.8532 14.3704 28.1251 15.2721 28.125 16.1944V18.2812C28.125 19.6125 27.3337 20.7563 26.1938 21.2719C26.0464 22.1163 25.6141 22.8848 24.969 23.4493C24.3239 24.0138 23.5048 24.3402 22.6482 24.3742C21.7917 24.4082 20.9494 24.1476 20.2615 23.636C19.5737 23.1244 19.0819 22.3926 18.8681 21.5625H11.1319C10.9181 22.3926 10.4263 23.1244 9.73846 23.636C9.05064 24.1476 8.2083 24.4082 7.35175 24.3742C6.4952 24.3402 5.67615 24.0138 5.03102 23.4493C4.38589 22.8848 3.95364 22.1163 3.80625 21.2719C3.2307 21.0121 2.74235 20.5917 2.39979 20.0612C2.05723 19.5308 1.87501 18.9127 1.875 18.2812V17.6456C1.875 15.6638 3.12375 13.8956 4.99125 13.23L7.8225 12.2231V12.1875H7.92188ZM19.7981 7.5H17.8125V12.1875H23.3869L22.4644 9.42375C22.278 8.86424 21.9205 8.37747 21.4424 8.03225C20.9643 7.68703 20.3897 7.50084 19.8 7.5H19.7981ZM15.9375 7.5H14.4375C13.9276 7.49982 13.4273 7.63825 12.99 7.90048C12.5527 8.16271 12.195 8.53888 11.955 8.98875L10.2487 12.1875H15.9375V7.5ZM8.24437 14.0625L5.61937 14.9963C5.07245 15.1909 4.59916 15.5501 4.26446 16.0244C3.92977 16.4988 3.75006 17.0651 3.75 17.6456V18.2812C3.75 18.6094 3.8625 18.9112 4.05 19.1512C4.35713 18.4304 4.88236 17.8238 5.55193 17.4167C6.22149 17.0097 7.00174 16.8226 7.78309 16.8818C8.56443 16.9409 9.30762 17.2434 9.90826 17.7466C10.5089 18.2498 10.9368 18.9286 11.1319 19.6875H18.8681C19.0637 18.9292 19.4917 18.2512 20.0921 17.7485C20.6925 17.2458 21.4353 16.9437 22.2161 16.8845C22.997 16.8254 23.7768 17.0122 24.4461 17.4187C25.1154 17.8252 25.6406 18.4311 25.9481 19.1512C26.1441 18.9036 26.2505 18.597 26.25 18.2812V16.1944C26.2504 15.7898 26.1635 15.3899 25.9952 15.022C25.8269 14.6541 25.5813 14.3268 25.275 14.0625H8.2425H8.24437ZM24.375 20.625C24.375 20.1277 24.1775 19.6508 23.8258 19.2992C23.4742 18.9475 22.9973 18.75 22.5 18.75C22.0027 18.75 21.5258 18.9475 21.1742 19.2992C20.8225 19.6508 20.625 20.1277 20.625 20.625C20.625 21.1223 20.8225 21.5992 21.1742 21.9508C21.5258 22.3025 22.0027 22.5 22.5 22.5C22.9973 22.5 23.4742 22.3025 23.8258 21.9508C24.1775 21.5992 24.375 21.1223 24.375 20.625ZM7.5 18.75C7.00272 18.75 6.52581 18.9475 6.17417 19.2992C5.82254 19.6508 5.625 20.1277 5.625 20.625C5.625 21.1223 5.82254 21.5992 6.17417 21.9508C6.52581 22.3025 7.00272 22.5 7.5 22.5C7.99728 22.5 8.47419 22.3025 8.82582 21.9508C9.17746 21.5992 9.375 21.1223 9.375 20.625C9.375 20.1277 9.17746 19.6508 8.82582 19.2992C8.47419 18.9475 7.99728 18.75 7.5 18.75Z" fill="#CDCDCD"/>
</svg>
