<svg width="30" height="30" viewBox="0 0 30 30" fill="none" xmlns="http://www.w3.org/2000/svg">
<path d="M4.29125 21.6563L3.84875 24.75C3.8214 24.942 3.83912 25.1378 3.9005 25.3218C3.96187 25.5058 4.06523 25.673 4.20238 25.8101C4.33953 25.9473 4.50672 26.0506 4.69072 26.112C4.87472 26.1734 5.07047 26.1911 5.2625 26.1637L8.35625 25.7212C8.825 25.655 10 22.5 10 22.5C10 22.5 10.59 23.0062 10.8312 23.0825C11.3462 23.245 11.8475 22.74 12.0162 22.2275L12.5 20.0125C12.5 20.0125 13.2212 20.3775 13.4825 20.4312C13.815 20.5 14.1375 20.295 14.3663 20.065C14.5037 19.928 14.6069 19.7606 14.6675 19.5763L15 17.5125C15 17.5125 15.8438 17.7463 16.1325 17.78C16.4613 17.8175 16.7813 17.65 17.0163 17.4137L18.4388 15.9925C19.6429 16.3827 20.9313 16.433 22.1622 16.1379C23.3931 15.8428 24.5187 15.2138 25.415 14.32C26.7021 13.0296 27.4249 11.2814 27.4249 9.45875C27.4249 7.63615 26.7021 5.88794 25.415 4.5975C24.1246 3.31039 22.3764 2.58758 20.5538 2.58758C18.7312 2.58758 16.9829 3.31039 15.6925 4.5975C14.7985 5.49366 14.1693 6.61923 13.8742 7.85018C13.5791 9.08113 13.6295 10.3697 14.02 11.5738L4.64375 20.9488C4.45237 21.1399 4.3286 21.3883 4.29125 21.6563V21.6563ZM23.13 6.8825C23.8119 7.56646 24.1949 8.4929 24.1949 9.45875C24.1949 10.4246 23.8119 11.351 23.13 12.035L17.9775 6.8825C18.6615 6.20055 19.5879 5.81761 20.5538 5.81761C21.5196 5.81761 22.446 6.20055 23.13 6.8825Z" fill="#F48116"/>
</svg>
